<?xml version="1.0"?><svg width="2481" height="2073" xmlns="http://www.w3.org/2000/svg">
 <title>map marker</title>

 <g>
  <title>Layer 1</title>
  <path fill-rule="evenodd" clip-rule="evenodd" fill="#ff7f00" stroke="#000000" stroke-width="37" stroke-miterlimit="10" d="m1075.939941,1959.629028c-38.765869,-190.301025 -107.115906,-348.665039 -189.902954,-495.439941c-61.406982,-108.87207 -132.543945,-209.363037 -198.364014,-314.937988c-21.971985,-35.244019 -40.93396,-72.477051 -62.046997,-109.054077c-42.215942,-73.136963 -76.44397,-157.934998 -74.268982,-267.932007c2.125,-107.472961 33.208008,-193.68396 78.029968,-264.171997c73.719055,-115.934967 197.20105,-210.988983 362.884033,-235.968994c135.466064,-20.423981 262.475098,14.082031 352.542969,66.748016c73.600098,43.037994 130.596069,100.527008 173.920044,168.279999c45.219971,70.716003 76.359009,154.26001 78.970947,263.231995c1.337036,55.830017 -7.804932,107.531982 -20.68396,150.417969c-13.033936,43.409058 -33.995972,79.695007 -52.645996,118.454102c-36.406006,75.658936 -82.04895,144.981934 -127.85498,214.345947c-136.437012,206.605957 -264.496094,417.309937 -320.580078,706.026978z" id="svg_2"/>
 </g>
</svg>